<svg xmlns="http://www.w3.org/2000/svg" xmlns:xlink="http://www.w3.org/1999/xlink" width="500" zoomAndPan="magnify" viewBox="0 0 375 374.999991" height="500" preserveAspectRatio="xMidYMid meet" version="1.2"><defs><clipPath id="f524dc96b2"><path d="M 14 155 L 185 155 L 185 328 L 14 328 Z M 14 155 "/></clipPath><clipPath id="612ee204a5"><path d="M -20.996094 182.164062 L 100.289062 70.0625 L 266.363281 249.746094 L 145.078125 361.84375 Z M -20.996094 182.164062 "/></clipPath><clipPath id="297a6fb92c"><path d="M -20.996094 182.164062 L 100.289062 70.0625 L 266.363281 249.746094 L 145.078125 361.84375 Z M -20.996094 182.164062 "/></clipPath><clipPath id="1749641801"><path d="M 101 75 L 272 75 L 272 248 L 101 248 Z M 101 75 "/></clipPath><clipPath id="c39372694e"><path d="M 66.03125 101.726562 L 187.316406 -10.375 L 353.390625 169.308594 L 232.105469 281.40625 Z M 66.03125 101.726562 "/></clipPath><clipPath id="7f5476de08"><path d="M 66.03125 101.726562 L 187.316406 -10.375 L 353.390625 169.308594 L 232.105469 281.40625 Z M 66.03125 101.726562 "/></clipPath><clipPath id="4d73ad5f13"><rect x="0" width="345" y="0" height="342"/></clipPath></defs><g id="b82f37d2ca"><g transform="matrix(1,0,0,1,21,10)"><g clip-path="url(#4d73ad5f13)"><g clip-rule="nonzero" clip-path="url(#f524dc96b2)"><g clip-rule="nonzero" clip-path="url(#612ee204a5)"><g clip-rule="nonzero" clip-path="url(#297a6fb92c)"><path style=" stroke:none;fill-rule:nonzero;fill:#0f74c5;fill-opacity:1;" d="M 184.582031 162.113281 L 37.582031 155.582031 C 9.1875 154.320312 4.394531 209.628906 38.035156 210.542969 L 129.507812 213.019531 L 122.519531 305.0625 C 120.394531 333.089844 175.058594 336.050781 176.617188 307.5625 Z M 184.582031 162.113281 "/></g></g></g><g clip-rule="nonzero" clip-path="url(#1749641801)"><g clip-rule="nonzero" clip-path="url(#c39372694e)"><g clip-rule="nonzero" clip-path="url(#7f5476de08)"><path style=" stroke:none;fill-rule:nonzero;fill:#0f74c5;fill-opacity:1;" d="M 271.613281 81.675781 L 124.609375 75.144531 C 96.214844 73.882812 91.421875 129.191406 125.0625 130.105469 L 216.535156 132.582031 L 209.550781 224.625 C 207.421875 252.652344 262.085938 255.613281 263.644531 227.128906 Z M 271.613281 81.675781 "/></g></g></g></g></g></g></svg>